<mxfile host="Electron" agent="Mozilla/5.0 (Windows NT 10.0; Win64; x64) AppleWebKit/537.36 (KHTML, like Gecko) draw.io/28.0.6 Chrome/138.0.7204.100 Electron/37.2.3 Safari/537.36" version="28.0.6">
  <diagram name="Seite-1" id="FIi0zwGdLFouZJbnn8fE">
    <mxGraphModel dx="2066" dy="1201" grid="1" gridSize="10" guides="1" tooltips="1" connect="1" arrows="1" fold="1" page="1" pageScale="1" pageWidth="827" pageHeight="1169" math="0" shadow="0">
      <root>
        <mxCell id="0" />
        <mxCell id="1" parent="0" />
        <mxCell id="pfkGnm8ijXwLCT1n08t3-18" style="edgeStyle=orthogonalEdgeStyle;rounded=0;orthogonalLoop=1;jettySize=auto;html=1;entryX=0;entryY=0.5;entryDx=0;entryDy=0;endArrow=ERzeroToMany;endFill=0;startArrow=ERone;startFill=0;" parent="1" source="pfkGnm8ijXwLCT1n08t3-1" target="pfkGnm8ijXwLCT1n08t3-3" edge="1">
          <mxGeometry relative="1" as="geometry" />
        </mxCell>
        <mxCell id="pfkGnm8ijXwLCT1n08t3-19" style="edgeStyle=orthogonalEdgeStyle;rounded=0;orthogonalLoop=1;jettySize=auto;html=1;entryX=0;entryY=0.5;entryDx=0;entryDy=0;endArrow=ERzeroToMany;endFill=0;startArrow=ERone;startFill=0;exitX=0.5;exitY=1;exitDx=0;exitDy=0;" parent="1" source="uWahd8A3gVhQ29BP0PXJ-11" target="pfkGnm8ijXwLCT1n08t3-17" edge="1">
          <mxGeometry relative="1" as="geometry">
            <Array as="points">
              <mxPoint x="150" y="615" />
            </Array>
            <mxPoint x="170" y="430" as="sourcePoint" />
          </mxGeometry>
        </mxCell>
        <mxCell id="pfkGnm8ijXwLCT1n08t3-1" value="Kunde (Debitor)" style="swimlane;fontStyle=0;childLayout=stackLayout;horizontal=1;startSize=30;horizontalStack=0;resizeParent=1;resizeParentMax=0;resizeLast=0;collapsible=1;marginBottom=0;whiteSpace=wrap;html=1;" parent="1" vertex="1">
          <mxGeometry x="80" y="220" width="140" height="180" as="geometry">
            <mxRectangle x="80" y="220" width="130" height="30" as="alternateBounds" />
          </mxGeometry>
        </mxCell>
        <mxCell id="uWahd8A3gVhQ29BP0PXJ-6" value="PKey_Kunde" style="text;html=1;align=center;verticalAlign=middle;whiteSpace=wrap;rounded=0;" parent="pfkGnm8ijXwLCT1n08t3-1" vertex="1">
          <mxGeometry y="30" width="140" height="30" as="geometry" />
        </mxCell>
        <mxCell id="uWahd8A3gVhQ29BP0PXJ-7" value="Name" style="text;html=1;align=center;verticalAlign=middle;whiteSpace=wrap;rounded=0;" parent="pfkGnm8ijXwLCT1n08t3-1" vertex="1">
          <mxGeometry y="60" width="140" height="30" as="geometry" />
        </mxCell>
        <mxCell id="uWahd8A3gVhQ29BP0PXJ-8" value="Adresse" style="text;html=1;align=center;verticalAlign=middle;whiteSpace=wrap;rounded=0;" parent="pfkGnm8ijXwLCT1n08t3-1" vertex="1">
          <mxGeometry y="90" width="140" height="30" as="geometry" />
        </mxCell>
        <mxCell id="uWahd8A3gVhQ29BP0PXJ-9" value="Geburtsdatum" style="text;html=1;align=center;verticalAlign=middle;whiteSpace=wrap;rounded=0;" parent="pfkGnm8ijXwLCT1n08t3-1" vertex="1">
          <mxGeometry y="120" width="140" height="30" as="geometry" />
        </mxCell>
        <mxCell id="uWahd8A3gVhQ29BP0PXJ-11" value="Email" style="text;html=1;align=center;verticalAlign=middle;whiteSpace=wrap;rounded=0;" parent="pfkGnm8ijXwLCT1n08t3-1" vertex="1">
          <mxGeometry y="150" width="140" height="30" as="geometry" />
        </mxCell>
        <mxCell id="pfkGnm8ijXwLCT1n08t3-20" style="edgeStyle=orthogonalEdgeStyle;rounded=0;orthogonalLoop=1;jettySize=auto;html=1;endArrow=ERone;endFill=0;startArrow=ERone;startFill=0;" parent="1" source="pfkGnm8ijXwLCT1n08t3-3" target="pfkGnm8ijXwLCT1n08t3-17" edge="1">
          <mxGeometry relative="1" as="geometry" />
        </mxCell>
        <mxCell id="uWahd8A3gVhQ29BP0PXJ-1" style="edgeStyle=orthogonalEdgeStyle;rounded=0;orthogonalLoop=1;jettySize=auto;html=1;entryX=0.5;entryY=1;entryDx=0;entryDy=0;endArrow=ERone;endFill=0;startArrow=ERone;startFill=0;" parent="1" source="pfkGnm8ijXwLCT1n08t3-3" target="pfkGnm8ijXwLCT1n08t3-14" edge="1">
          <mxGeometry relative="1" as="geometry" />
        </mxCell>
        <mxCell id="uWahd8A3gVhQ29BP0PXJ-3" style="edgeStyle=orthogonalEdgeStyle;rounded=0;orthogonalLoop=1;jettySize=auto;html=1;endArrow=ERzeroToMany;endFill=0;startArrow=ERone;startFill=0;" parent="1" source="pfkGnm8ijXwLCT1n08t3-3" target="uWahd8A3gVhQ29BP0PXJ-2" edge="1">
          <mxGeometry relative="1" as="geometry" />
        </mxCell>
        <mxCell id="pfkGnm8ijXwLCT1n08t3-3" value="Bestellung" style="swimlane;fontStyle=0;childLayout=stackLayout;horizontal=1;startSize=30;horizontalStack=0;resizeParent=1;resizeParentMax=0;resizeLast=0;collapsible=1;marginBottom=0;whiteSpace=wrap;html=1;" parent="1" vertex="1">
          <mxGeometry x="320" y="235" width="140" height="150" as="geometry" />
        </mxCell>
        <mxCell id="uWahd8A3gVhQ29BP0PXJ-19" value="PKey_Bestellung" style="text;html=1;align=center;verticalAlign=middle;whiteSpace=wrap;rounded=0;" parent="pfkGnm8ijXwLCT1n08t3-3" vertex="1">
          <mxGeometry y="30" width="140" height="30" as="geometry" />
        </mxCell>
        <mxCell id="9Sospb1hNUZMKh-TaANf-12" value="FKey_Lieferant" style="text;strokeColor=none;fillColor=none;align=center;verticalAlign=middle;spacingLeft=4;spacingRight=4;overflow=hidden;points=[[0,0.5],[1,0.5]];portConstraint=eastwest;rotatable=0;whiteSpace=wrap;html=1;" vertex="1" parent="pfkGnm8ijXwLCT1n08t3-3">
          <mxGeometry y="60" width="140" height="30" as="geometry" />
        </mxCell>
        <mxCell id="9Sospb1hNUZMKh-TaANf-13" value="FKey_Kunde" style="text;strokeColor=none;fillColor=none;align=center;verticalAlign=middle;spacingLeft=4;spacingRight=4;overflow=hidden;points=[[0,0.5],[1,0.5]];portConstraint=eastwest;rotatable=0;whiteSpace=wrap;html=1;" vertex="1" parent="pfkGnm8ijXwLCT1n08t3-3">
          <mxGeometry y="90" width="140" height="30" as="geometry" />
        </mxCell>
        <mxCell id="uWahd8A3gVhQ29BP0PXJ-28" value="Datum" style="text;html=1;align=center;verticalAlign=middle;whiteSpace=wrap;rounded=0;" parent="pfkGnm8ijXwLCT1n08t3-3" vertex="1">
          <mxGeometry y="120" width="140" height="30" as="geometry" />
        </mxCell>
        <mxCell id="uWahd8A3gVhQ29BP0PXJ-4" style="edgeStyle=orthogonalEdgeStyle;rounded=0;orthogonalLoop=1;jettySize=auto;html=1;entryX=1;entryY=0.5;entryDx=0;entryDy=0;startArrow=ERone;startFill=0;endArrow=ERzeroToMany;endFill=0;" parent="1" source="pfkGnm8ijXwLCT1n08t3-5" target="uWahd8A3gVhQ29BP0PXJ-2" edge="1">
          <mxGeometry relative="1" as="geometry" />
        </mxCell>
        <mxCell id="pfkGnm8ijXwLCT1n08t3-5" value="Artikel" style="swimlane;fontStyle=0;childLayout=stackLayout;horizontal=1;startSize=30;horizontalStack=0;resizeParent=1;resizeParentMax=0;resizeLast=0;collapsible=1;marginBottom=0;whiteSpace=wrap;html=1;" parent="1" vertex="1">
          <mxGeometry x="840" y="220" width="140" height="180" as="geometry" />
        </mxCell>
        <mxCell id="uWahd8A3gVhQ29BP0PXJ-24" value="PKey_Artikel" style="text;html=1;align=center;verticalAlign=middle;whiteSpace=wrap;rounded=0;" parent="pfkGnm8ijXwLCT1n08t3-5" vertex="1">
          <mxGeometry y="30" width="140" height="30" as="geometry" />
        </mxCell>
        <mxCell id="uWahd8A3gVhQ29BP0PXJ-32" value="Name" style="text;html=1;align=center;verticalAlign=middle;whiteSpace=wrap;rounded=0;" parent="pfkGnm8ijXwLCT1n08t3-5" vertex="1">
          <mxGeometry y="60" width="140" height="30" as="geometry" />
        </mxCell>
        <mxCell id="uWahd8A3gVhQ29BP0PXJ-33" value="Beschreibung" style="text;html=1;align=center;verticalAlign=middle;whiteSpace=wrap;rounded=0;" parent="pfkGnm8ijXwLCT1n08t3-5" vertex="1">
          <mxGeometry y="90" width="140" height="30" as="geometry" />
        </mxCell>
        <mxCell id="uWahd8A3gVhQ29BP0PXJ-35" value="Kategorie" style="text;html=1;align=center;verticalAlign=middle;whiteSpace=wrap;rounded=0;" parent="pfkGnm8ijXwLCT1n08t3-5" vertex="1">
          <mxGeometry y="120" width="140" height="30" as="geometry" />
        </mxCell>
        <mxCell id="uWahd8A3gVhQ29BP0PXJ-34" value="Menge" style="text;html=1;align=center;verticalAlign=middle;whiteSpace=wrap;rounded=0;" parent="pfkGnm8ijXwLCT1n08t3-5" vertex="1">
          <mxGeometry y="150" width="140" height="30" as="geometry" />
        </mxCell>
        <mxCell id="uWahd8A3gVhQ29BP0PXJ-43" value="" style="edgeStyle=orthogonalEdgeStyle;rounded=0;orthogonalLoop=1;jettySize=auto;html=1;startArrow=ERone;startFill=0;endArrow=ERzeroToMany;endFill=0;" parent="1" source="pfkGnm8ijXwLCT1n08t3-8" target="uWahd8A3gVhQ29BP0PXJ-41" edge="1">
          <mxGeometry relative="1" as="geometry" />
        </mxCell>
        <mxCell id="pfkGnm8ijXwLCT1n08t3-8" value="Lagerort" style="swimlane;fontStyle=0;childLayout=stackLayout;horizontal=1;startSize=30;horizontalStack=0;resizeParent=1;resizeParentMax=0;resizeLast=0;collapsible=1;marginBottom=0;whiteSpace=wrap;html=1;" parent="1" vertex="1">
          <mxGeometry x="840" y="690" width="140" height="120" as="geometry" />
        </mxCell>
        <mxCell id="uWahd8A3gVhQ29BP0PXJ-31" value="PKey_Lagerort" style="text;html=1;align=center;verticalAlign=middle;whiteSpace=wrap;rounded=0;" parent="pfkGnm8ijXwLCT1n08t3-8" vertex="1">
          <mxGeometry y="30" width="140" height="30" as="geometry" />
        </mxCell>
        <mxCell id="uWahd8A3gVhQ29BP0PXJ-37" value="Name" style="text;html=1;align=center;verticalAlign=middle;whiteSpace=wrap;rounded=0;" parent="pfkGnm8ijXwLCT1n08t3-8" vertex="1">
          <mxGeometry y="60" width="140" height="30" as="geometry" />
        </mxCell>
        <mxCell id="uWahd8A3gVhQ29BP0PXJ-36" value="Adresse" style="text;html=1;align=center;verticalAlign=middle;whiteSpace=wrap;rounded=0;" parent="pfkGnm8ijXwLCT1n08t3-8" vertex="1">
          <mxGeometry y="90" width="140" height="30" as="geometry" />
        </mxCell>
        <mxCell id="pfkGnm8ijXwLCT1n08t3-14" value="Lieferant (Kreditor)" style="swimlane;fontStyle=0;childLayout=stackLayout;horizontal=1;startSize=30;horizontalStack=0;resizeParent=1;resizeParentMax=0;resizeLast=0;collapsible=1;marginBottom=0;whiteSpace=wrap;html=1;" parent="1" vertex="1">
          <mxGeometry x="320" y="50" width="140" height="120" as="geometry" />
        </mxCell>
        <mxCell id="uWahd8A3gVhQ29BP0PXJ-20" value="PKey_Lieferant" style="text;html=1;align=center;verticalAlign=middle;whiteSpace=wrap;rounded=0;" parent="pfkGnm8ijXwLCT1n08t3-14" vertex="1">
          <mxGeometry y="30" width="140" height="30" as="geometry" />
        </mxCell>
        <mxCell id="uWahd8A3gVhQ29BP0PXJ-26" value="Name" style="text;html=1;align=center;verticalAlign=middle;whiteSpace=wrap;rounded=0;" parent="pfkGnm8ijXwLCT1n08t3-14" vertex="1">
          <mxGeometry y="60" width="140" height="30" as="geometry" />
        </mxCell>
        <mxCell id="uWahd8A3gVhQ29BP0PXJ-27" value="Adresse" style="text;html=1;align=center;verticalAlign=middle;whiteSpace=wrap;rounded=0;" parent="pfkGnm8ijXwLCT1n08t3-14" vertex="1">
          <mxGeometry y="90" width="140" height="30" as="geometry" />
        </mxCell>
        <mxCell id="pfkGnm8ijXwLCT1n08t3-17" value="Zahlung" style="swimlane;fontStyle=0;childLayout=stackLayout;horizontal=1;startSize=30;horizontalStack=0;resizeParent=1;resizeParentMax=0;resizeLast=0;collapsible=1;marginBottom=0;whiteSpace=wrap;html=1;" parent="1" vertex="1">
          <mxGeometry x="320" y="510" width="140" height="210" as="geometry" />
        </mxCell>
        <mxCell id="uWahd8A3gVhQ29BP0PXJ-12" value="PKey_Zahlung" style="text;html=1;align=center;verticalAlign=middle;whiteSpace=wrap;rounded=0;" parent="pfkGnm8ijXwLCT1n08t3-17" vertex="1">
          <mxGeometry y="30" width="140" height="30" as="geometry" />
        </mxCell>
        <mxCell id="uWahd8A3gVhQ29BP0PXJ-17" value="FKey_Kunde" style="text;html=1;align=center;verticalAlign=middle;whiteSpace=wrap;rounded=0;" parent="pfkGnm8ijXwLCT1n08t3-17" vertex="1">
          <mxGeometry y="60" width="140" height="30" as="geometry" />
        </mxCell>
        <mxCell id="uWahd8A3gVhQ29BP0PXJ-18" value="FKey_Bestellung" style="text;html=1;align=center;verticalAlign=middle;whiteSpace=wrap;rounded=0;" parent="pfkGnm8ijXwLCT1n08t3-17" vertex="1">
          <mxGeometry y="90" width="140" height="30" as="geometry" />
        </mxCell>
        <mxCell id="uWahd8A3gVhQ29BP0PXJ-13" value="Betrag" style="text;html=1;align=center;verticalAlign=middle;whiteSpace=wrap;rounded=0;" parent="pfkGnm8ijXwLCT1n08t3-17" vertex="1">
          <mxGeometry y="120" width="140" height="30" as="geometry" />
        </mxCell>
        <mxCell id="uWahd8A3gVhQ29BP0PXJ-15" value="Fälligkeit" style="text;html=1;align=center;verticalAlign=middle;whiteSpace=wrap;rounded=0;" parent="pfkGnm8ijXwLCT1n08t3-17" vertex="1">
          <mxGeometry y="150" width="140" height="30" as="geometry" />
        </mxCell>
        <mxCell id="uWahd8A3gVhQ29BP0PXJ-16" value="Status" style="text;html=1;align=center;verticalAlign=middle;whiteSpace=wrap;rounded=0;" parent="pfkGnm8ijXwLCT1n08t3-17" vertex="1">
          <mxGeometry y="180" width="140" height="30" as="geometry" />
        </mxCell>
        <mxCell id="uWahd8A3gVhQ29BP0PXJ-2" value="Bestellung&amp;lt;&amp;gt;Artikel" style="swimlane;fontStyle=0;childLayout=stackLayout;horizontal=1;startSize=30;horizontalStack=0;resizeParent=1;resizeParentMax=0;resizeLast=0;collapsible=1;marginBottom=0;whiteSpace=wrap;html=1;" parent="1" vertex="1">
          <mxGeometry x="580" y="250" width="140" height="120" as="geometry" />
        </mxCell>
        <mxCell id="uWahd8A3gVhQ29BP0PXJ-21" value="PKey_Bestellung_Artikel" style="text;html=1;align=center;verticalAlign=middle;whiteSpace=wrap;rounded=0;" parent="uWahd8A3gVhQ29BP0PXJ-2" vertex="1">
          <mxGeometry y="30" width="140" height="30" as="geometry" />
        </mxCell>
        <mxCell id="uWahd8A3gVhQ29BP0PXJ-22" value="FKey_Bestellung" style="text;html=1;align=center;verticalAlign=middle;whiteSpace=wrap;rounded=0;" parent="uWahd8A3gVhQ29BP0PXJ-2" vertex="1">
          <mxGeometry y="60" width="140" height="30" as="geometry" />
        </mxCell>
        <mxCell id="uWahd8A3gVhQ29BP0PXJ-23" value="FKey_Artikel" style="text;html=1;align=center;verticalAlign=middle;whiteSpace=wrap;rounded=0;" parent="uWahd8A3gVhQ29BP0PXJ-2" vertex="1">
          <mxGeometry y="90" width="140" height="30" as="geometry" />
        </mxCell>
        <mxCell id="uWahd8A3gVhQ29BP0PXJ-38" value="Artikel&amp;lt;&amp;gt;Lager" style="swimlane;fontStyle=0;childLayout=stackLayout;horizontal=1;startSize=30;horizontalStack=0;resizeParent=1;resizeParentMax=0;resizeLast=0;collapsible=1;marginBottom=0;whiteSpace=wrap;html=1;" parent="1" vertex="1">
          <mxGeometry x="840" y="480" width="140" height="120" as="geometry" />
        </mxCell>
        <mxCell id="uWahd8A3gVhQ29BP0PXJ-39" value="PKey_Artikel_Lager" style="text;html=1;align=center;verticalAlign=middle;whiteSpace=wrap;rounded=0;" parent="uWahd8A3gVhQ29BP0PXJ-38" vertex="1">
          <mxGeometry y="30" width="140" height="30" as="geometry" />
        </mxCell>
        <mxCell id="uWahd8A3gVhQ29BP0PXJ-40" value="FKey_Artikel" style="text;html=1;align=center;verticalAlign=middle;whiteSpace=wrap;rounded=0;" parent="uWahd8A3gVhQ29BP0PXJ-38" vertex="1">
          <mxGeometry y="60" width="140" height="30" as="geometry" />
        </mxCell>
        <mxCell id="uWahd8A3gVhQ29BP0PXJ-41" value="FKey_Lager" style="text;html=1;align=center;verticalAlign=middle;whiteSpace=wrap;rounded=0;" parent="uWahd8A3gVhQ29BP0PXJ-38" vertex="1">
          <mxGeometry y="90" width="140" height="30" as="geometry" />
        </mxCell>
        <mxCell id="uWahd8A3gVhQ29BP0PXJ-42" style="edgeStyle=orthogonalEdgeStyle;rounded=0;orthogonalLoop=1;jettySize=auto;html=1;entryX=0.5;entryY=0;entryDx=0;entryDy=0;startArrow=ERone;startFill=0;endArrow=ERzeroToMany;endFill=0;" parent="1" source="uWahd8A3gVhQ29BP0PXJ-34" target="uWahd8A3gVhQ29BP0PXJ-38" edge="1">
          <mxGeometry relative="1" as="geometry" />
        </mxCell>
      </root>
    </mxGraphModel>
  </diagram>
</mxfile>
